Coordinates
version=1
nRows=11
nColumns=63
inDegrees=yes

Units are S.I. units (second, meters, Newtons, ...)
If the header above contains a line with 'inDegrees', this indicates whether rotational values are in degrees (yes) or radians (no).

endheader
time	pelvis_tilt	pelvis_list	pelvis_rotation	pelvis_tx	pelvis_ty	pelvis_tz	hip_flexion_r	hip_adduction_r	hip_rotation_r	knee_angle_r	knee_angle_r_beta	ankle_angle_r	subtalar_angle_r	mtp_angle_r	hip_flexion_l	hip_adduction_l	hip_rotation_l	knee_angle_l	knee_angle_l_beta	ankle_angle_l	subtalar_angle_l	mtp_angle_l	L5_S1_Flex_Ext	L5_S1_Lat_Bending	L5_S1_axial_rotation	L4_L5_Flex_Ext	L4_L5_Lat_Bending	L4_L5_axial_rotation	L3_L4_Flex_Ext	L3_L4_Lat_Bending	L3_L4_axial_rotation	L2_L3_Flex_Ext	L2_L3_Lat_Bending	L2_L3_axial_rotation	L1_L2_Flex_Ext	L1_L2_Lat_Bending	L1_L2_axial_rotation	L1_T12_Flex_Ext	L1_T12_Lat_Bending	L1_T12_axial_rotation	Abs_r3	Abs_r2	Abs_r1	Abs_t1	Abs_t2	neck_flexion	neck_bending	neck_rotation	arm_flex_r	arm_add_r	arm_rot_r	elbow_flex_r	pro_sup_r	wrist_flex_r	wrist_dev_r	arm_flex_l	arm_add_l	arm_rot_l	elbow_flex_l	pro_sup_l	wrist_flex_l	wrist_dev_l
      1.16071429	     -1.09482044	     -2.24189770	     86.90480325	      0.23455170	      1.03000567	      0.37688819	     -5.20029043	      1.79206498	      1.67365171	      2.43621798	      0.04252002	     19.66174811	     -2.35243823	      0.00000000	      1.09871326	     -1.81410740	      2.89529108	     11.97868397	      0.20906748	     26.32714268	     -3.26641032	      0.00000000	      0.15132454	      0.26426868	      0.01555826	      0.28102481	      0.35147735	      0.01653065	      0.24861109	      0.64254287	      0.01653065	      0.17294882	      0.64254287	      0.01361348	      0.14051997	      0.53889669	      0.01264109	      0.08646684	      0.40935219	      0.01166870	      1.08089607	      2.98946018	      0.08653039	      0.00000000	      0.00000000	     18.75388730	     -7.52247646	     12.57151181	     10.35018183	     -7.43343981	     53.41805456	     45.47227928	     33.60474107	      5.88793392	     12.75701442	     11.82952063	     -7.95178064	     48.05938869	     48.86008302	     60.82450962	      5.33796803	     18.09818336
      1.17857143	     -1.08417751	     -1.94823099	     87.05941418	      0.23457282	      1.03043405	      0.37620820	     -5.65905754	      1.83576437	      2.45780342	      2.29316625	      0.04002330	     19.15332151	     -3.92990614	      0.00000000	      0.67751026	     -1.81301354	      3.09334126	     11.83464340	      0.20655349	     26.27098262	     -3.34678549	      0.00000000	      0.13107387	      0.25846863	     -0.02477435	      0.24341729	      0.34376328	     -0.02632275	      0.21534127	      0.62844063	     -0.02632275	      0.14980433	      0.62844063	     -0.02167756	      0.12171520	      0.52706924	     -0.02012916	      0.07489561	      0.40036791	     -0.01858076	      0.93624758	      2.92384886	     -0.13778751	      0.00000000	      0.00000000	     18.25274172	     -7.46618504	     12.38745008	     10.43218369	     -7.48643916	     55.04356991	     45.31909147	     30.04558777	      6.03575256	     12.65927418	     12.03200916	     -8.16368055	     49.08814291	     48.57658941	     60.15322181	      5.19627459	     16.86506760
      1.19642857	     -1.09079263	     -1.68212285	     87.13499893	      0.23474322	      1.03090448	      0.37549210	     -6.05140282	      1.83919216	      2.54430499	      2.16281765	      0.03774829	     18.95005026	     -4.32363920	      0.00000000	      0.22871514	     -1.82167325	      3.01112927	     11.60217393	      0.20249614	     26.24931442	     -3.09726021	      0.00000000	      0.11078100	      0.25107599	     -0.07151411	      0.20573140	      0.33393106	     -0.07598374	      0.18200211	      0.61046615	     -0.07598374	      0.12661161	      0.61046615	     -0.06257485	      0.10287124	      0.51199415	     -0.05810522	      0.06330026	      0.38891670	     -0.05363558	      0.79129761	      2.84022178	     -0.39774003	      0.00000000	      0.00000000	     17.69292459	     -7.37241929	     12.33110847	     10.33747969	     -7.48029137	     55.87524050	     45.14582616	     27.39938295	      6.41597058	     13.30710457	     12.03730590	     -8.36609992	     50.05493074	     48.26375735	     59.96673483	      4.84356335	     15.23694760
      1.21428571	     -1.13971259	     -1.48840635	     87.12985885	      0.23507295	      1.03139216	      0.37449493	     -6.37294589	      1.79123863	      2.41011975	      1.99434461	      0.03480788	     18.92214481	     -4.16836387	      0.00000000	     -0.24068749	     -1.81011065	      2.62008592	     11.22183443	      0.19585796	     26.20572089	     -2.50562061	      0.00000000	      0.10178434	      0.23917209	     -0.10528814	      0.18902369	      0.31809888	     -0.11186865	      0.16722149	      0.58152302	     -0.11186865	      0.11632932	      0.58152302	     -0.09212712	      0.09451694	      0.48771972	     -0.08554661	      0.05815957	      0.37047756	     -0.07896610	      0.72703535	      2.70556250	     -0.58558105	      0.00000000	      0.00000000	     17.07734328	     -7.29833899	     12.32361244	      9.94544434	     -7.52993327	     55.36720661	     45.25557544	     25.74278568	      6.08276674	     14.71666805	     11.82344093	     -8.61776956	     50.87135926	     47.99523389	     59.96858529	      4.40953645	     13.34159266
      1.23214286	     -1.20250043	     -1.37994995	     87.12726027	      0.23536838	      1.03190160	      0.37338219	     -6.61469425	      1.73267772	      2.37988938	      1.78553449	      0.03116346	     18.90383587	     -4.04025695	      0.00000000	     -0.67081798	     -1.74889237	      2.58042978	     10.74241716	      0.18749055	     25.93214788	     -2.40295533	      0.00000000	      0.09990245	      0.22715425	     -0.15387805	      0.18552883	      0.30211515	     -0.16349542	      0.16412973	      0.55230284	     -0.16349542	      0.11417851	      0.55230284	     -0.13464329	      0.09276941	      0.46321294	     -0.12502591	      0.05708426	      0.35186193	     -0.11540854	      0.71359318	      2.56961429	     -0.85582353	      0.00000000	      0.00000000	     16.55107649	     -7.24473484	     12.42719351	      9.63086658	     -7.70232334	     54.32392960	     45.29939150	     25.36020698	      5.99329993	     15.88156662	     11.18947744	     -8.81878967	     50.64664748	     47.82811087	     60.02040971	      4.15190135	     11.85281363
      1.25000000	     -1.23116145	     -1.36817315	     87.03526398	      0.23568743	      1.03227618	      0.37246708	     -6.69044171	      1.69502241	      2.13557985	      1.66393589	      0.02904116	     19.05269376	     -3.39760250	      0.00000000	     -0.89913083	     -1.72244530	      2.38334377	     10.46962248	      0.18272938	     25.74244242	     -2.26881245	      0.00000000	      0.09855601	      0.22317833	     -0.12755903	      0.18302837	      0.29682718	     -0.13553147	      0.16191767	      0.54263580	     -0.13553147	      0.11263966	      0.54263580	     -0.11161416	      0.09151911	      0.45510526	     -0.10364172	      0.05631490	      0.34570324	     -0.09566928	      0.70397573	      2.52463793	     -0.70944508	      0.00000000	      0.00000000	     16.20419387	     -7.29590674	     12.59596472	      8.81908006	     -8.02264941	     50.95340286	     45.86680107	     27.20994961	      5.33861095	     18.01503082	     10.75165307	     -8.99484366	     50.74028486	     47.52053147	     60.28768624	      4.10615462	     10.05347652
      1.26785714	     -1.29564385	     -1.43181477	     86.90905025	      0.23613723	      1.03253667	      0.37145221	     -6.69927585	      1.61568606	      1.83692847	      1.54644711	      0.02699059	     19.31589269	     -2.47333361	      0.00000000	     -1.08565796	     -1.66025322	      2.23532869	     10.12813541	      0.17676931	     25.40157099	     -2.23655662	      0.00000000	      0.10767364	      0.21535809	     -0.10028452	      0.19996072	      0.28642626	     -0.10655231	      0.17689703	      0.52362167	     -0.10655231	      0.12306021	      0.52362167	     -0.08774896	      0.09998574	      0.43915822	     -0.08148118	      0.06152472	      0.33358969	     -0.07521339	      0.76910206	      2.43617382	     -0.55775244	      0.00000000	      0.00000000	     15.99517050	     -7.40334512	     12.73857338	      8.02532877	     -8.22818560	     46.94725420	     45.92003185	     33.17397936	      6.12531098	     18.62350097	     10.04713845	     -9.13214072	     50.14318283	     47.14498041	     59.97541344	      4.42714097	      8.64232466
      1.28571429	     -1.36232778	     -1.52918100	     86.77917727	      0.23653207	      1.03269573	      0.37073751	     -6.64289163	      1.53610306	      1.55522708	      1.47073413	      0.02566915	     19.57255190	     -1.58457162	      0.00000000	     -1.17971619	     -1.58573344	      2.18709198	      9.86199325	      0.17212425	     25.07066436	     -2.36587944	      0.00000000	      0.11878497	      0.20992581	     -0.06097670	      0.22059557	      0.27920133	     -0.06478774	      0.19515183	      0.51041362	     -0.06478774	      0.13575934	      0.51041362	     -0.05335461	      0.11030372	      0.42808071	     -0.04954357	      0.06787373	      0.32517508	     -0.04573252	      0.84846916	      2.37472275	     -0.33913411	      0.00000000	      0.00000000	     15.87762706	     -7.59820483	     12.82545067	      7.45995532	     -8.40938372	     42.73809323	     45.51952693	     41.97700094	      7.56065328	     17.76823598	      9.34893403	     -9.25452600	     49.45331409	     46.60002678	     60.06987972	      4.69707401	      7.23338097
      1.30357143	     -1.41308695	     -1.58237156	     86.60824887	      0.23688836	      1.03284661	      0.37033112	     -6.60852576	      1.46413783	      1.35437500	      1.43074348	      0.02497118	     19.80557946	     -0.76866638	      0.00000000	     -1.26985227	     -1.51340511	      2.21610717	      9.67141840	      0.16879809	     24.70711926	     -2.68547982	      0.00000000	      0.12490720	      0.21114131	      0.00321079	      0.23196516	      0.28081795	      0.00341147	      0.20521004	      0.51336899	      0.00341147	      0.14275644	      0.51336899	      0.00280944	      0.11598882	      0.43055937	      0.00260877	      0.07137197	      0.32705790	      0.00240810	      0.89219963	      2.38847278	      0.01785747	      0.00000000	      0.00000000	     15.76311979	     -7.81353426	     13.02708082	      7.12544410	     -8.55157423	     38.47436597	     44.72670428	     54.11258721	      8.30216664	     14.98514500	      8.85566435	     -9.34632137	     48.98529637	     45.66841858	     61.72099638	      4.97125055	      5.63997489
      1.32142857	     -1.44407687	     -1.55493355	     86.47800018	      0.23712122	      1.03304047	      0.37023126	     -6.63487413	      1.41174476	      1.22815688	      1.41657602	      0.02472392	     19.96878579	     -0.15627902	      0.00000000	     -1.39844895	     -1.45064035	      2.38201231	      9.52776264	      0.16629083	     24.30396113	     -3.12445025	      0.00000000	      0.12267177	      0.21699595	      0.07972357	      0.22781374	      0.28860461	      0.08470629	      0.20153745	      0.52760395	      0.08470629	      0.14020156	      0.52760395	      0.06975812	      0.11391300	      0.44249814	      0.06477540	      0.07009465	      0.33612672	      0.05979268	      0.87623216	      2.45470156	      0.44339858	      0.00000000	      0.00000000	     15.59440547	     -8.08779271	     13.16810350	      7.01401686	     -8.66457365	     34.73263411	     43.43321297	     67.37879146	      7.15038097	     10.42673888	      8.69626577	     -9.45456329	     48.94048066	     44.39089430	     66.62838556	      4.79684055	      3.79372432
      1.33928571	     -1.53476735	     -1.35360613	     86.27704658	      0.23753356	      1.03333483	      0.37044823	     -6.81900961	      1.28627855	      1.39076518	      1.41102156	      0.02462697	     20.09706055	      0.03304932	      0.00000000	     -1.69165422	     -1.32862417	      2.40781213	      9.39757369	      0.16401860	     23.93616168	     -3.41917027	      0.00000000	      0.10055953	      0.21283594	      0.22636047	      0.18674910	      0.28307180	      0.24050800	      0.16520925	      0.51748930	      0.24050800	      0.11492948	      0.51748930	      0.19806541	      0.09337958	      0.43401505	      0.18391788	      0.05745971	      0.32968287	      0.16977035	      0.71828665	      2.40764272	      1.25894901	      0.00000000	      0.00000000	     15.24394255	     -8.22221117	     13.14915916	      7.43644582	     -9.25550655	     34.39029089	     41.35109859	     72.92164589	      2.79070348	      4.60834118	      9.74287777	     -9.88877964	     51.87859974	     42.72689501	     72.43795535	      3.64573820	      2.16971649
